<svg width="17" height="16" viewBox="0 0 17 16" fill="none" xmlns="http://www.w3.org/2000/svg">
<path d="M13.5367 15.4496H3.24037C2.0937 15.4496 1.15517 14.511 1.15517 13.3644V3.06799C1.15517 1.92132 2.0937 0.982788 3.24037 0.982788H13.5367C14.6834 0.982788 15.6219 1.92132 15.6219 3.06799V13.3644C15.6219 14.5174 14.6898 15.4496 13.5367 15.4496Z" fill="#2D2D2D" stroke="white"/>
<mask id="path-2-inside-1_47_3880" fill="white">
<path d="M8.39172 12.1895C7.33096 12.1895 6.33372 11.7766 5.5842 11.0271C4.83468 10.2775 4.42181 9.2803 4.42181 8.21954C4.42181 7.15878 4.83468 6.16154 5.5842 5.41202C6.33372 4.6625 7.33096 4.24963 8.39172 4.24963C9.45248 4.24963 10.4497 4.6625 11.1992 5.41202C11.9488 6.16154 12.3616 7.15878 12.3616 8.21954C12.3616 9.2803 11.9488 10.2775 11.1992 11.0271C10.4434 11.7766 9.45248 12.1895 8.39172 12.1895ZM8.39172 5.09443C6.67037 5.09443 5.26661 6.49184 5.26661 8.21954C5.26661 9.9409 6.66402 11.3447 8.39172 11.3447C10.1131 11.3447 11.5168 9.94725 11.5168 8.21954C11.5105 6.49819 10.1131 5.09443 8.39172 5.09443Z"/>
</mask>
<path d="M8.39172 12.1895C7.33096 12.1895 6.33372 11.7766 5.5842 11.0271C4.83468 10.2775 4.42181 9.2803 4.42181 8.21954C4.42181 7.15878 4.83468 6.16154 5.5842 5.41202C6.33372 4.6625 7.33096 4.24963 8.39172 4.24963C9.45248 4.24963 10.4497 4.6625 11.1992 5.41202C11.9488 6.16154 12.3616 7.15878 12.3616 8.21954C12.3616 9.2803 11.9488 10.2775 11.1992 11.0271C10.4434 11.7766 9.45248 12.1895 8.39172 12.1895ZM8.39172 5.09443C6.67037 5.09443 5.26661 6.49184 5.26661 8.21954C5.26661 9.9409 6.66402 11.3447 8.39172 11.3447C10.1131 11.3447 11.5168 9.94725 11.5168 8.21954C11.5105 6.49819 10.1131 5.09443 8.39172 5.09443Z" fill="black"/>
<path d="M11.1992 11.0271L11.9034 11.7372L11.9064 11.7342L11.1992 11.0271ZM11.5168 8.21954L12.5168 8.21954L12.5168 8.21585L11.5168 8.21954ZM8.39172 11.1895C7.59595 11.1895 6.85313 10.8818 6.29131 10.32L4.8771 11.7342C5.81432 12.6714 7.06598 13.1895 8.39172 13.1895V11.1895ZM6.29131 10.32C5.72949 9.75814 5.42181 9.01532 5.42181 8.21954H3.42181C3.42181 9.54529 3.93987 10.7969 4.8771 11.7342L6.29131 10.32ZM5.42181 8.21954C5.42181 7.42377 5.72949 6.68095 6.29131 6.11913L4.8771 4.70492C3.93987 5.64214 3.42181 6.8938 3.42181 8.21954H5.42181ZM6.29131 6.11913C6.85313 5.55731 7.59595 5.24963 8.39172 5.24963V3.24963C7.06598 3.24963 5.81432 3.7677 4.8771 4.70492L6.29131 6.11913ZM8.39172 5.24963C9.1875 5.24963 9.93032 5.55731 10.4921 6.11913L11.9064 4.70492C10.9691 3.7677 9.71747 3.24963 8.39172 3.24963V5.24963ZM10.4921 6.11913C11.054 6.68095 11.3616 7.42377 11.3616 8.21954H13.3616C13.3616 6.8938 12.8436 5.64214 11.9064 4.70492L10.4921 6.11913ZM11.3616 8.21954C11.3616 9.01532 11.054 9.75814 10.4921 10.32L11.9064 11.7342C12.8436 10.7969 13.3616 9.54529 13.3616 8.21954H11.3616ZM10.4951 10.317C9.92394 10.8834 9.18508 11.1895 8.39172 11.1895V13.1895C9.71989 13.1895 10.9628 12.6698 11.9034 11.7371L10.4951 10.317ZM8.39172 4.09443C6.11941 4.09443 4.26661 5.93823 4.26661 8.21954H6.26661C6.26661 7.04545 7.22133 6.09443 8.39172 6.09443V4.09443ZM4.26661 8.21954C4.26661 10.4919 6.11041 12.3447 8.39172 12.3447V10.3447C7.21763 10.3447 6.26661 9.38994 6.26661 8.21954H4.26661ZM8.39172 12.3447C10.664 12.3447 12.5168 10.5009 12.5168 8.21954H10.5168C10.5168 9.39364 9.56212 10.3447 8.39172 10.3447V12.3447ZM12.5168 8.21585C12.5085 5.94846 10.6687 4.09443 8.39172 4.09443V6.09443C9.55745 6.09443 10.5125 7.04792 10.5168 8.22323L12.5168 8.21585Z" fill="white" mask="url(#path-2-inside-1_47_3880)"/>
<path d="M13.1354 4.11921C13.5564 4.11921 13.8977 3.77794 13.8977 3.35697C13.8977 2.93599 13.5564 2.59473 13.1354 2.59473C12.7145 2.59473 12.3732 2.93599 12.3732 3.35697C12.3732 3.77794 12.7145 4.11921 13.1354 4.11921Z" fill="white"/>
</svg>
