<svg width="17" height="17" viewBox="0 0 17 17" fill="none" xmlns="http://www.w3.org/2000/svg">
<path d="M16.6205 15.2938L13.4372 12.1098C14.4653 10.7975 15.0218 9.17721 15.0171 7.50998C15.0171 6.02465 14.5767 4.57267 13.7517 3.33766C12.9266 2.10265 11.754 1.14008 10.382 0.571667C9.00995 0.00325397 7.50023 -0.145469 6.04371 0.144306C4.58719 0.43408 3.2493 1.14934 2.19921 2.19963C1.14912 3.24992 0.433997 4.58807 0.144278 6.04486C-0.145441 7.50165 0.00325335 9.01166 0.571558 10.3839C1.13986 11.7562 2.10225 12.9291 3.33703 13.7543C4.5718 14.5795 6.0235 15.02 7.50856 15.02C9.17547 15.0247 10.7954 14.468 12.1075 13.4397L15.2909 16.6237C15.468 16.7985 15.7068 16.8966 15.9557 16.8966C16.2045 16.8966 16.4434 16.7985 16.6205 16.6237C16.708 16.5364 16.7774 16.4328 16.8248 16.3187C16.8722 16.2046 16.8966 16.0823 16.8966 15.9587C16.8966 15.8352 16.8722 15.7128 16.8248 15.5987C16.7774 15.4846 16.708 15.381 16.6205 15.2938ZM1.87714 7.50998C1.87714 6.39598 2.20742 5.307 2.82621 4.38074C3.44499 3.45448 4.3245 2.73256 5.35351 2.30625C6.38251 1.87994 7.5148 1.76839 8.60719 1.98573C9.69958 2.20306 10.703 2.7395 11.4906 3.52722C12.2781 4.31493 12.8145 5.31855 13.0318 6.41114C13.2491 7.50374 13.1375 8.63624 12.7113 9.66544C12.2851 10.6946 11.5633 11.5743 10.6372 12.1932C9.71112 12.8121 8.62234 13.1425 7.50856 13.1425C6.01565 13.1404 4.58448 12.5463 3.52883 11.4905C2.47318 10.4346 1.87921 9.00318 1.87714 7.50998Z" fill="white"/>
</svg>
