<svg width="21" height="21" viewBox="0 0 21 21" fill="none" xmlns="http://www.w3.org/2000/svg">
<path d="M10.5525 14.6268C11.7002 14.6268 12.8009 14.1708 13.6125 13.3593C14.4241 12.5477 14.88 11.447 14.88 10.2992C14.88 9.15149 14.4241 8.05076 13.6125 7.23919C12.8009 6.42762 11.7002 5.97168 10.5525 5.97168C9.40473 5.97168 8.304 6.42762 7.49243 7.23919C6.68085 8.05076 6.22491 9.15149 6.22491 10.2992C6.22491 11.447 6.68085 12.5477 7.49243 13.3593C8.304 14.1708 9.40473 14.6268 10.5525 14.6268V14.6268Z" stroke="white" stroke-linecap="round" stroke-linejoin="round"/>
<path d="M15.3061 15.0529L17.7168 17.3188M15.2196 5.63212L17.2102 3.69471M3.8947 16.9037L5.88537 14.9663M10.5525 3.69471V1M10.5525 16.957V19.7069M3.94796 10.2992H1M19.7069 10.2992H17.157M5.22414 5.22414L3.38811 3.69471" stroke="white" stroke-linecap="round" stroke-linejoin="round"/>
</svg>
