<svg width="14" height="15" viewBox="0 0 14 15" fill="none" xmlns="http://www.w3.org/2000/svg">
<path d="M12.7842 13.5432H12.322C12.7551 12.8331 13 12.0256 13 11.1691C13 8.70632 10.9755 6.64844 8.27364 6.14842L8.25309 6.11281C7.52242 5.84929 6.99997 5.14978 6.99997 4.32825C6.99997 5.14978 6.47756 5.84929 5.74687 6.11281L5.72632 6.14842C3.02444 6.64844 1 8.70632 1 11.1691C1 12.0256 1.24484 12.8331 1.67803 13.5432H1.21582C1.0971 13.5432 1 13.6404 1 13.759V14.1475C1 14.2662 1.09712 14.3633 1.21582 14.3633H2.30112H11.6989H12.7842C12.9029 14.3633 13 14.2662 13 14.1475V13.759C13 13.6404 12.9029 13.5432 12.7842 13.5432Z" fill="white" stroke="white" stroke-miterlimit="10"/>
<mask id="path-2-inside-1_47_3859" fill="white">
<path d="M9.25 4.06286C8.85215 4.45987 8.30754 4.70459 7.70673 4.70459C6.48798 4.70459 5.5 3.69723 5.5 2.45457C5.5 1.21195 6.48798 0.20459 7.70673 0.20459C7.82894 0.20459 7.94874 0.214718 8.0655 0.234243C7.13065 0.398666 6.41945 1.22948 6.41945 2.22958C6.41945 3.34792 7.30868 4.25457 8.40551 4.25457C8.70755 4.25457 8.99374 4.18583 9.25 4.06286Z"/>
</mask>
<path d="M9.25 4.06286C8.85215 4.45987 8.30754 4.70459 7.70673 4.70459C6.48798 4.70459 5.5 3.69723 5.5 2.45457C5.5 1.21195 6.48798 0.20459 7.70673 0.20459C7.82894 0.20459 7.94874 0.214718 8.0655 0.234243C7.13065 0.398666 6.41945 1.22948 6.41945 2.22958C6.41945 3.34792 7.30868 4.25457 8.40551 4.25457C8.70755 4.25457 8.99374 4.18583 9.25 4.06286Z" fill="white"/>
<path d="M9.25 4.06286L9.95636 4.77071L8.81735 3.16129L9.25 4.06286ZM8.0655 0.234243L8.23872 1.21913L8.23043 -0.752063L8.0655 0.234243ZM8.40551 4.25457V3.25457V4.25457ZM8.54364 3.35501C8.32362 3.57456 8.02937 3.70459 7.70673 3.70459V5.70459C8.58571 5.70459 9.38068 5.34518 9.95636 4.77071L8.54364 3.35501ZM7.70673 3.70459C7.05849 3.70459 6.5 3.16335 6.5 2.45457H4.5C4.5 4.23111 5.91747 5.70459 7.70673 5.70459V3.70459ZM6.5 2.45457C6.5 1.74584 7.05848 1.20459 7.70673 1.20459V-0.79541C5.91748 -0.79541 4.5 0.678063 4.5 2.45457H6.5ZM7.70673 1.20459C7.77356 1.20459 7.83819 1.21012 7.90057 1.22055L8.23043 -0.752063C8.05929 -0.780681 7.88433 -0.79541 7.70673 -0.79541V1.20459ZM7.89227 -0.75064C6.47389 -0.501171 5.41945 0.749545 5.41945 2.22958H7.41945C7.41945 1.70941 7.78741 1.2985 8.23872 1.21913L7.89227 -0.75064ZM5.41945 2.22958C5.41945 3.88182 6.73819 5.25457 8.40551 5.25457V3.25457C7.87917 3.25457 7.41945 2.81402 7.41945 2.22958H5.41945ZM8.40551 5.25457C8.86096 5.25457 9.29469 5.1506 9.68265 4.96442L8.81735 3.16129C8.69279 3.22107 8.55414 3.25457 8.40551 3.25457L8.40551 5.25457Z" fill="white" mask="url(#path-2-inside-1_47_3859)"/>
</svg>
