<svg width="16" height="16" viewBox="0 0 16 16" fill="none" xmlns="http://www.w3.org/2000/svg">
<path d="M4.01068 5.36951H0.905575V15.2715H4.01068V5.36951Z" fill="white"/>
<path d="M12.4102 5.15472C12.2957 5.14041 12.1741 5.13326 12.0525 5.1261C10.3139 5.05456 9.33373 6.08482 8.99031 6.52841C8.8973 6.65004 8.85437 6.72159 8.85437 6.72159V5.39798H5.8852V15.3H8.85437H8.99031C8.99031 14.2912 8.99031 13.2895 8.99031 12.2807C8.99031 11.737 8.99031 11.1932 8.99031 10.6495C8.99031 9.97694 8.94023 9.26148 9.2765 8.64618C9.56268 8.13105 10.0778 7.87348 10.6573 7.87348C12.3744 7.87348 12.4102 9.42603 12.4102 9.56913C12.4102 9.57628 12.4102 9.58344 12.4102 9.58344V15.3429H15.5153V8.88228C15.5153 6.6715 14.392 5.36936 12.4102 5.15472Z" fill="white"/>
<path d="M2.45811 4.08872C3.45386 4.08872 4.26108 3.2815 4.26108 2.28575C4.26108 1.29 3.45386 0.482788 2.45811 0.482788C1.46236 0.482788 0.655151 1.29 0.655151 2.28575C0.655151 3.2815 1.46236 4.08872 2.45811 4.08872Z" fill="white"/>
</svg>
