<svg width="17" height="12" viewBox="0 0 17 12" fill="none" xmlns="http://www.w3.org/2000/svg">
<path fill-rule="evenodd" clip-rule="evenodd" d="M15.0494 1.22104C15.7768 1.39986 16.3486 1.92483 16.5432 2.59285C16.8951 3.80244 16.8966 6.32764 16.8966 6.32764C16.8966 6.32764 16.8966 8.85286 16.5432 10.0625C16.3486 10.7305 15.7768 11.2554 15.0494 11.4342C13.7323 11.7587 8.44825 11.7587 8.44825 11.7587C8.44825 11.7587 3.16427 11.7587 1.8471 11.4342C1.11967 11.2554 0.548011 10.7305 0.353286 10.0625C1.25889e-07 8.85286 0 6.32764 0 6.32764C0 6.32764 1.25889e-07 3.80244 0.353286 2.59285C0.548011 1.92483 1.11967 1.39986 1.8471 1.22104C3.16427 0.896607 8.44825 0.896606 8.44825 0.896606C8.44825 0.896606 13.7323 0.896607 15.0494 1.22104ZM11.1467 6.32786L6.757 8.65506V4.00062L11.1467 6.32786Z" fill="white"/>
</svg>
